<?xml version="1.0" standalone="no"?>
<!DOCTYPE svg PUBLIC "-//W3C//DTD SVG 20010904//EN"
 "http://www.w3.org/TR/2001/REC-SVG-20010904/DTD/svg10.dtd">
<svg version="1.0" xmlns="http://www.w3.org/2000/svg"
 width="457.000000pt" height="457.000000pt" viewBox="0 0 457.000000 457.000000"
 preserveAspectRatio="xMidYMid meet">
<metadata>
Created by potrace 1.11, written by Peter Selinger 2001-2013
</metadata>
<g transform="translate(0.000000,457.000000) scale(0.100000,-0.100000)"
fill="#000000" stroke="none">
<path d="M1678 4554 c-37 -19 -53 -76 -32 -115 18 -36 43 -49 99 -52 l45 -2 0
-641 0 -642 -78 -138 c-43 -77 -81 -146 -85 -154 -4 -8 -17 -31 -28 -50 -23
-38 -283 -499 -457 -810 -14 -25 -74 -132 -134 -238 -60 -106 -118 -209 -129
-230 -11 -20 -28 -50 -38 -67 -10 -16 -31 -55 -48 -85 -16 -30 -68 -122 -115
-205 -264 -467 -375 -665 -397 -710 -35 -69 -36 -179 -3 -246 29 -59 82 -112
141 -141 l46 -23 1825 0 1825 0 51 27 c100 53 157 147 158 259 0 66 -21 122
-92 244 -9 17 -46 82 -82 145 -36 63 -70 124 -77 135 -7 11 -15 26 -19 34 -4
8 -31 56 -59 105 -28 50 -65 116 -82 146 -17 30 -70 125 -118 210 -48 85 -99
175 -113 200 -142 254 -674 1199 -752 1335 -9 17 -45 80 -79 142 l-63 112 1
633 c0 348 0 639 0 645 1 7 9 12 19 11 51 -4 81 4 106 28 36 37 35 86 -2 124
l-29 28 -589 0 c-492 1 -593 -2 -616 -14z m926 -839 l1 -670 33 -53 c17 -29
32 -54 32 -57 0 -2 14 -28 31 -57 18 -29 43 -73 57 -98 14 -25 86 -153 160
-285 139 -248 143 -254 206 -368 21 -37 36 -71 32 -74 -8 -8 -257 -9 -346 -1
-107 10 -202 32 -358 82 -177 58 -241 74 -359 90 -151 21 -419 17 -555 -8 -28
-5 -37 10 -19 30 4 5 26 43 48 84 22 41 76 138 121 215 90 159 198 349 250
444 l35 65 0 660 c0 364 1 663 3 666 1 3 143 6 315 5 l313 0 0 -670z"/>
</g>
</svg>
